<svg xmlns="http://www.w3.org/2000/svg" viewBox="0 0 457.09 497.39"><defs><style>.cls-1{fill:#3f3d56;}.cls-2{fill:#fff;}.cls-3{fill:#ffb8b8;}.cls-4{fill:#2f2e41;}.cls-5{fill:#f9a826;}</style></defs><g id="Capa_2" data-name="Capa 2"><g id="Capa_1-2" data-name="Capa 1"><circle class="cls-1" cx="210.5" cy="278.81" r="210.5"/><circle class="cls-2" cx="210.5" cy="278.81" r="193.08"/><circle class="cls-1" cx="209.81" cy="279.51" r="25.79"/><rect class="cls-1" x="204.23" y="95.49" width="11.15" height="20.91"/><rect class="cls-1" x="204.23" y="442.62" width="11.15" height="20.91"/><rect class="cls-1" x="25.79" y="273.93" width="20.91" height="11.15"/><rect class="cls-1" x="372.91" y="273.93" width="20.91" height="11.15"/><polygon class="cls-1" points="202.37 290.7 211.9 268.91 331.33 335.05 202.37 290.7"/><rect class="cls-1" x="183.32" y="17.43" width="54.37" height="62.73"/><ellipse class="cls-1" cx="210.5" cy="17.43" rx="62.73" ry="17.43"/><path class="cls-3" d="M328,316.1,324.47,321s-16,18.82-16.73,9.76,11.85-15.33,11.85-15.33l7-4.19Z"/><path class="cls-3" d="M427.17,332.57l2.92,5.23s10.15,22.55,1.66,19.3S423,339.83,423,339.83l-.79-8.09Z"/><circle class="cls-4" cx="411.48" cy="218.46" r="21.22"/><path class="cls-3" d="M409.51,392.78l2.78,18.12v5.58h16v-7s.69-12.55-2.1-16S409.51,392.78,409.51,392.78Z"/><path class="cls-3" d="M380.93,392.78l2.79,18.12v5.58h16v-7s.69-12.55-2.09-16S380.93,392.78,380.93,392.78Z"/><path class="cls-5" d="M391.72,247.2s-6.17,3.25-2,10.65,28.92,83.87,28.92,83.87l14.26-4-12.57-48.37-7.2-30.41Z"/><circle class="cls-3" cx="409.16" cy="224.44" r="16.03"/><path class="cls-3" d="M416.48,226.88l-2.09,32.76-14.64-10.45s4.88-19.52,3.48-20.91Z"/><path class="cls-5" d="M416.48,256.86l-15.77-11.68s-7.24-3-9.33.52-12.54,55.07-7,64.83c0,0,30,6.27,36.25,2.79l2.79-18.13s3.48-11.15-2.09-18.12Z"/><path class="cls-5" d="M395.57,246.4s-5.58-4.18-10.46,2.79-63.43,62-63.43,62l9.76,11.16,38.34-32.07,24.39-19.51Z"/><path class="cls-4" d="M421,313s-34.51-6.62-38-1.75l-.7,7.67s-7.67,14.64-3.48,38.34,1.39,38.34,1.39,38.34,18.82-2.1,32.76,0,16,0,16,0Z"/><path class="cls-4" d="M429.72,413.69l-20.21.7,7,52.27s-5.58,22.31.69,23.7a71,71,0,0,0,13.25,1.4s6.27,6.27,13.24,5.57a39,39,0,0,0,13.24-4.18s1.4-4.18-3.48-5.58S435.3,482,432.51,467.36Z"/><path class="cls-4" d="M401.14,413.69l-20.21.7,7,52.27s-5.58,22.31.7,23.7a70.93,70.93,0,0,0,13.24,1.4s6.27,6.27,13.24,5.57a39.14,39.14,0,0,0,13.25-4.18s1.39-4.18-3.49-5.58-18.12-5.57-20.91-20.21Z"/><circle class="cls-4" cx="418.91" cy="196.12" r="8.78"/><path class="cls-4" d="M430.62,191.37a8.79,8.79,0,0,0-7.87-8.74c.3,0,.61,0,.91,0a8.79,8.79,0,0,1,0,17.57c-.3,0-.61,0-.91-.05A8.79,8.79,0,0,0,430.62,191.37Z"/><ellipse class="cls-4" cx="409.01" cy="213.96" rx="14.64" ry="8.78"/></g></g></svg>