<svg xmlns="http://www.w3.org/2000/svg" viewBox="0 0 618 347"><defs><style>.cls-1{fill:#f0f0f0;}.cls-2{fill:#f9a826;}.cls-3{fill:#a0616a;}.cls-4{fill:#2f2e41;}.cls-5{fill:#ffb6b6;}.cls-6{fill:#ffb8b8;}</style></defs><g id="Capa_2" data-name="Capa 2"><g id="Capa_1-2" data-name="Capa 1"><circle class="cls-1" cx="73" cy="73" r="73"/><circle class="cls-1" cx="545" cy="73" r="73"/><circle class="cls-1" cx="295" cy="73" r="73"/><path class="cls-2" d="M580.48,104.64a112.15,112.15,0,0,0-18-7.55l-.79-8.73-32-3.45-4.07,11.16-11.49,4.31a5.54,5.54,0,0,0-1.16.6h0a11.29,11.29,0,0,0-5.27,1.83,11.68,11.68,0,0,0-2.82,2.52c1.55,1.18,3.17,2.27,4.83,3.32l.08,0c.47.29.95.59,1.44.86.87.53,1.77,1,2.67,1.5l.57.29q2,1,4,1.92l.86.36.06,0c.65.26,1.29.52,1.95.76a63,63,0,0,0,6.58,2.11,67.58,67.58,0,0,0,17.45,2.29c2.14,0,4.27-.1,6.37-.31a67.33,67.33,0,0,0,14.13-2.85h0a66.64,66.64,0,0,0,8.49-3.37l0,0c.61-.29,1.21-.61,1.82-.91l.29-.15,1.46-.77c1.21-.67,2.4-1.38,3.58-2.13.32-.19.64-.4,1-.62s.92-.62,1.37-.94C582.87,106,581.69,105.29,580.48,104.64Z"/><circle class="cls-3" cx="544.48" cy="56.34" r="23.05"/><path class="cls-4" d="M529,45.11c2.38,2.82,6.42,3.62,10.15,4,7.56.66,18.56-.41,26-2.12.53,5.11-.91,10.63,2.1,14.83a69.29,69.29,0,0,0,2.45-15.61,15.11,15.11,0,0,0-.87-6.69,6.15,6.15,0,0,0-5.24-3.86,13.16,13.16,0,0,1,5.86-2.5l-7.32-3.68L564,27.5l-13.25-.81,3.84-2.44a83.37,83.37,0,0,0-17.44-.55c-2.7.2-5.52.58-7.71,2.14s-3.45,4.68-2.09,7a10.14,10.14,0,0,0-7.72,6.13,16.33,16.33,0,0,0-.58,7.85A55.79,55.79,0,0,0,522,59.14Z"/><circle id="bfd52db7-3176-431c-b22d-4ccf50ae4673" class="cls-4" cx="299.05" cy="23.73" r="9.75"/><path id="b31e8c25-48a3-409d-90cd-0f3aa66812dd-325" class="cls-4" d="M290.59,28.8a9.75,9.75,0,0,1,3.55-16.36A9.74,9.74,0,0,0,297,31.72a10.22,10.22,0,0,0,1.7-.4,9.77,9.77,0,0,1-8.07-2.52Z"/><circle id="fe71adb6-1e7d-40f2-ae2d-2f206863ade9" class="cls-4" cx="299.25" cy="57.55" r="28.63"/><path id="e07a90a6-c331-41ef-a441-b6d8bd717078-326" class="cls-4" d="M273.78,41.78a28.62,28.62,0,0,1,39.67-3l-.7-.66a28.63,28.63,0,0,0-38.21,42.65l.16.14c.24.22.49.42.74.63a28.62,28.62,0,0,1-1.66-39.76Z"/><circle id="fefa9ca9-d901-48cd-a772-63aab06ef99d" class="cls-3" cx="299" cy="67.5" r="18.44"/><path class="cls-2" d="M332,115.54v6.19c-1.13.72-2.28,1.4-3.44,2l-1.4.75-.28.14c-.59.29-1.16.59-1.76.87,0,0,0,0,0,0a65,65,0,0,1-8.16,3.23h0a64.89,64.89,0,0,1-13.59,2.75q-3,.28-6.12.29a65.06,65.06,0,0,1-16.78-2.2,63.57,63.57,0,0,1-8.19-2.76l-.06,0-.83-.35c-1.32-.57-2.6-1.19-3.87-1.84l-.54-.28c-1.35-.71-2.67-1.46-4-2.27l-.07,0a64.24,64.24,0,0,1-5.77-4c-.94-.73-1.85-1.48-2.74-2.28-.47-.4-.93-.82-1.38-1.22a65.25,65.25,0,0,1-4.84-5A24.3,24.3,0,0,1,249,106l0,0a5.89,5.89,0,0,1,.24-.58c.07-.17.14-.33.22-.49,2.09-3.91,5.87-4.88,10.57-5.09,2.65-.12,5.58,0,8.67,0,1.64,0,3.33-.07,5-.22,10.68-1,8.74-7.28,9.22-10.67s3.45-.45,3.64-.26h0A37.68,37.68,0,0,0,306,92c1.15-.14,2.29-.22,3.44-.26,3,0,2.35.83,1.32,1.54a13.61,13.61,0,0,1-1.58.89s-.48,2.92-1,7.28c-.47,4.18,14.25,5.63,17.14,6.54h0A10.54,10.54,0,0,1,332,115.54Z"/><ellipse id="eb9de4e7-d719-4e1b-ab1d-c7fc470b1049" class="cls-3" cx="280.32" cy="63.62" rx="1.46" ry="2.67"/><ellipse id="a295d86f-11aa-4df2-91d0-9ecb8f1fab78" class="cls-3" cx="317.69" cy="63.62" rx="1.46" ry="2.67"/><path class="cls-4" d="M49.64,78.11l3.51,12.14,44.76-.79-.39-22.24c-.31-17.6-12.75-32.77-30.35-32.46S38.39,49.94,38.7,67.54l2.55,22.92,7.3-.13Z"/><circle class="cls-5" cx="69.18" cy="66.51" r="20.09" transform="translate(-6.22 7.14) rotate(-5.65)"/><path class="cls-4" d="M91.16,52.41a7.76,7.76,0,0,0-1.38-4.3c-.09-.13-.19-.25-.28-.37a7.81,7.81,0,0,0-6.28-3L68.79,45l-14.43.25a7.82,7.82,0,0,0-7.66,7.94l3.44,6.91,2,4,.33-.19c12.49-7,17.59-7.11,34.12-.58l.33.13,1.31-3.35,3-7.61Z"/><path class="cls-2" d="M109.15,97.83c-4.3-4.29-18.88-2.59-18.88-2.59L51.8,97.67c-8.53.63-16.22,7.46-19,10.23.44.43.9.86,1.36,1.27a53.86,53.86,0,0,0,63.33,6c4.13-2.46,9.4-5.41,12.7-8.86,1.31-1.35,2.36-1.33,3.52-2.81A11.56,11.56,0,0,0,109.15,97.83Z"/><circle class="cls-1" cx="73" cy="274" r="73"/><circle class="cls-1" cx="545" cy="274" r="73"/><circle class="cls-1" cx="295" cy="274" r="73"/><circle class="cls-6" cx="71.8" cy="264.29" r="20.18"/><path class="cls-4" d="M52.71,270.6s1.72-3,1.32-13.07S69,253.16,81.75,252.2,91.84,269,91.84,269s.92-1.06,2.9-9.63-2.51-17.1-2.51-17.1c-1.33-9-8.45-6.12-8.45-6.12,3.43,1.33,2.77,4.19,2.77,4.19-2.9-5.09-10-2.21-10-2.21-9.5-6-19.13,1.89-19.13,1.89-11.48,2.61-4.75,11.74-4.75,11.74C41.1,257.59,52.71,270.6,52.71,270.6Z"/><path class="cls-2" d="M105.48,311.65a113.07,113.07,0,0,0-18-7.55l-.79-8.73-32-3.45-4.07,11.16-11.49,4.31A5.58,5.58,0,0,0,38,308h0a11.39,11.39,0,0,0-5.27,1.82,11.72,11.72,0,0,0-2.82,2.53c1.55,1.17,3.17,2.27,4.83,3.31l.08,0c.47.29,1,.58,1.44.86.87.52,1.77,1,2.67,1.49l.57.29c1.31.68,2.65,1.33,4,1.92l.86.37.06,0c.65.27,1.29.52,1.95.77A65.42,65.42,0,0,0,53,323.53a67.55,67.55,0,0,0,17.44,2.28c2.15,0,4.28-.09,6.38-.3a67.33,67.33,0,0,0,14.13-2.85l0,0a66.59,66.59,0,0,0,8.49-3.36l.05,0,1.82-.92.29-.14,1.46-.78c1.21-.67,2.4-1.37,3.58-2.12l1-.62c.46-.31.92-.62,1.37-.95C107.87,313,106.69,312.31,105.48,311.65Z"/><path class="cls-2" d="M322.76,307.39l-12.15-1.11L303.34,301s0,0,0,0h0l-.29-.21,0,.33-12.27,4.72-12.61-2.91-4.36,4.72-19.43,6.45a9.84,9.84,0,0,0-2.43,2.3h0c.82.64,1.66,1.27,2.5,1.86a65,65,0,0,0,6,3.85,67.69,67.69,0,0,0,16,6.58l1.52.39c.88.22,1.78.42,2.67.59q2.7.57,5.47.88a67.6,67.6,0,0,0,8.17.49c1.86,0,3.71-.07,5.54-.22a66.72,66.72,0,0,0,9.55-1.45l.34-.08a68.13,68.13,0,0,0,14-4.86c.68-.33,1.37-.67,2-1,1.66-.85,3.28-1.77,4.84-2.75,1.19-.74,2.34-1.52,3.47-2.32.69-.5,1.37-1,2.05-1.53l-.07-.16A16.16,16.16,0,0,0,322.76,307.39Z"/><path class="cls-4" d="M311.15,246.75a22.21,22.21,0,0,0-4.76-3.59c-10.74-5.93-22.47-6-32.19-.3a30.35,30.35,0,0,0-6.56,5.21,30.69,30.69,0,0,0-8.53,21.15v23.37h61.15V266.82C320.26,259.92,316.46,251.93,311.15,246.75Z"/><circle class="cls-6" cx="288.48" cy="269.87" r="22.08"/><path class="cls-4" d="M311.13,249.83a2.72,2.72,0,0,0-1.55-2.21c-13.82-6.45-27.83-6.28-41.63.51h-.25l-.09.34c-2.72,21-2.33,21.42-2.17,21.61a2.8,2.8,0,0,0,1,.7,2.69,2.69,0,0,0,1.08.23H299l.08-.36a50.63,50.63,0,0,1,1.4-5.55,61.13,61.13,0,0,1,3.47,5.68l.13.23h6.12a2,2,0,0,0,.35,0,2.65,2.65,0,0,0,1.64-.85C312.35,270,312.74,269.52,311.13,249.83Z"/><path class="cls-2" d="M561.51,304.55l-.79-8.83-32.42-3.49-4.11,11.3-11.64,4.36a5.35,5.35,0,0,0-1.19.61,11.74,11.74,0,0,0-6.35,2.58c.26.22.53.43.8.64l.17.15c.74.57,1.5,1.14,2.27,1.68l.61.43a61.59,61.59,0,0,0,5.23,3.32c1.72,1,3.48,1.88,5.29,2.7a66,66,0,0,0,10.31,3.71l1.48.38c.86.21,1.73.41,2.59.57q2.64.55,5.33.86a66.46,66.46,0,0,0,8,.48q2.73,0,5.4-.21a66.67,66.67,0,0,0,9.31-1.42,2,2,0,0,0,.33-.08,65.66,65.66,0,0,0,13.6-4.74l2-1c1.61-.84,3.19-1.73,4.71-2.69.55-.34,1.09-.69,1.63-1.05C575.75,309.25,563.71,305.25,561.51,304.55Z"/><circle id="e8fe815c-89b6-45a1-8f09-a3d9b2d7a5fa" class="cls-3" cx="543.24" cy="263.29" r="23.35"/><path id="b463a6a0-335d-4c85-b501-8d2679f87106-327" class="cls-4" d="M527.57,251.91c2.42,2.86,6.51,3.67,10.28,4,7.66.67,18.8-.42,26.29-2.15.54,5.18-.92,10.77,2.13,15A70,70,0,0,0,568.75,253a15.16,15.16,0,0,0-.88-6.77,6.21,6.21,0,0,0-5.3-3.91,1.94,1.94,0,0,0,.42-2,6.62,6.62,0,0,0-5-5l-8.4-2s-7.89-3.46-13.78-3c-2.73.2-5.59.58-7.81,2.17s-3.5,4.73-2.12,7.06a10.23,10.23,0,0,0-7.81,6.2,16.49,16.49,0,0,0-.6,8,56.54,56.54,0,0,0,3,12.51Z"/><path class="cls-4" d="M318.92,53.39a8.9,8.9,0,0,0-4.39-5.27,24.85,24.85,0,0,0-6.62-2.33,43.73,43.73,0,0,0-12.41-1.7c-4.18.2-8.46,1.65-11.3,4.73s-3.89,8-1.82,11.6l-.23.94A17.27,17.27,0,0,0,299,53,15.8,15.8,0,0,0,314,60.3a7.09,7.09,0,0,0,2.67-.77A5.54,5.54,0,0,0,318.92,53.39Z"/></g></g></svg>